<?xml version="1.0" encoding="UTF-8"?>
<svg width="118px" height="40px" viewBox="0 0 118 40" version="1.1" xmlns="http://www.w3.org/2000/svg" xmlns:xlink="http://www.w3.org/1999/xlink">
    <!-- Generator: Sketch 53.2 (72643) - https://sketchapp.com -->
    <title>Bits/Logo/Bruner-Dynamics-Color</title>
    <desc>Created with Sketch.</desc>
    <g id="Symbols" stroke="none" stroke-width="1" fill="none" fill-rule="evenodd">
        <g id="Components/desktop/header/ppc-plans-scroll" transform="translate(-300.000000, -10.000000)">
            <g id="Header-on-Scroll">
                <g id="Bits/Logo/Bruner-Dynamics-Color" transform="translate(300.000000, 10.000000)">
                    <g id="Page-1">
                        <path d="M76.8903882,8.36664684 L77.1345517,8.36664684 L78.1125416,8.36664684 L78.3567052,8.36664684 C78.545802,8.36664684 78.6537089,8.2650855 78.6537089,8.06196283 L78.6537089,6.56382156 C78.6537089,6.38612639 78.545802,6.28456506 78.3567052,6.28456506 L78.0668259,6.28456506 L77.1802674,6.28456506 L76.8903882,6.28456506 C76.7012913,6.28456506 76.5935328,6.38612639 76.5935328,6.56382156 L76.5935328,8.06196283 C76.5935328,8.2650855 76.7012913,8.36664684 76.8903882,8.36664684 L76.8903882,8.36664684 Z M73.2242247,8.36664684 L73.4683882,8.36664684 L74.4463781,8.36664684 L74.6905416,8.36664684 C74.8796385,8.36664684 74.9875454,8.2650855 74.9875454,8.06196283 L74.9875454,6.56382156 C74.9875454,6.38612639 74.8796385,6.28456506 74.6905416,6.28456506 L74.4006624,6.28456506 L73.5141039,6.28456506 L73.2242247,6.28456506 C73.0351278,6.28456506 72.9272209,6.38612639 72.9272209,6.56382156 L72.9272209,8.06196283 C72.9272209,8.2650855 73.0351278,8.36664684 73.2242247,8.36664684 L73.2242247,8.36664684 Z M57.2747806,18.5520743 C57.2747806,16.4157175 55.9791555,14.9827063 53.1450775,14.9827063 L48.4216636,14.9827063 L48.4216636,22.067316 L52.9831429,22.067316 C55.6284209,22.067316 57.2747806,20.9586171 57.2747806,18.5520743 L57.2747806,18.5520743 Z M52.9561291,24.1493978 L46.4512863,24.1493978 C46.235324,24.1493978 46.1274171,24.0412937 46.1274171,23.852 L46.1274171,7.93378439 L48.4216636,7.93378439 L48.4216636,12.9004758 L53.1450775,12.9004758 C55.1154548,12.9004758 56.4651077,11.9270929 56.4651077,9.89913755 C56.4651077,8.06032714 55.2775379,6.89750186 52.9831429,6.89750186 L50.3991655,6.89750186 L48.4216636,6.89750186 L47.1995102,6.89750186 L47.1995102,6.89750186 L45.4885844,6.89750186 C45.2994875,6.89750186 45.1915806,6.79579182 45.1915806,6.59266914 L45.1915806,5.09467658 C45.1915806,4.91698141 45.2994875,4.81542007 45.4885844,4.81542007 L46.4512863,4.81542007 L48.3602146,4.81542007 L52.9831429,4.81542007 C56.8430045,4.81542007 58.7863681,6.84337546 58.7863681,9.89913755 C58.7863681,11.7377993 57.8955052,13.1709591 56.4921215,13.8469442 C58.4893643,14.5770558 59.596041,16.3077621 59.596041,18.5520743 C59.596041,22.067316 57.1667253,24.1493978 52.9561291,24.1493978 L52.9561291,24.1493978 Z M115.180869,30.3376506 C114.034562,30.0753457 113.270308,29.779881 113.270308,28.948803 C113.270308,28.1504387 114.001759,27.7238216 115.038972,27.7238216 C115.792242,27.7456803 116.490891,27.9754201 117.156886,28.4346022 C117.222491,28.4784684 117.287799,28.4784684 117.331586,28.4127435 L117.69182,27.8986914 C117.735457,27.8439703 117.735457,27.7785428 117.659017,27.7346766 C116.829455,27.1331896 116.086871,26.8597323 115.115264,26.8597323 C113.619706,26.8597323 112.331503,27.4830781 112.331503,28.9269442 C112.331503,30.3815167 113.619706,30.9392862 114.940564,31.2346022 C116.185279,31.5082082 116.982187,31.7923717 116.982187,32.7001784 C116.982187,33.6189888 116.086871,34.0346022 115.093445,34.0346022 C114.274718,34.0237472 113.597739,33.7282825 112.844469,33.159658 C112.789847,33.1157918 112.724539,33.1267955 112.680753,33.1923717 L112.309535,33.7064238 C112.265898,33.7721487 112.265898,33.8268699 112.331503,33.8814424 C113.193867,34.5815167 113.97994,34.9205502 115.060791,34.9205502 C116.600134,34.9205502 117.92114,34.2424833 117.92114,32.6784684 C117.92114,31.1251599 116.632937,30.6659777 115.180869,30.3376506 L115.180869,30.3376506 Z M108.205065,33.4002528 C108.161279,33.3236729 108.095971,33.3126691 108.041349,33.3673903 C107.46263,33.8158662 106.742162,34.0456059 106.032529,34.0456059 C104.798947,34.0456059 104.110984,33.3236729 104.110984,32.2081338 L104.110984,29.5721487 C104.110984,28.4566097 104.787963,27.7346766 106.021545,27.7346766 C106.643903,27.7346766 107.309898,27.9315539 107.844831,28.3253086 C107.921271,28.3691747 107.986728,28.3691747 108.030366,28.3034498 L108.379764,27.7893978 C108.423402,27.7238216 108.423402,27.6691004 108.357797,27.6252342 C107.681115,27.1221859 106.851256,26.8597323 106.032529,26.8597323 C104.460383,26.8597323 103.183163,27.767539 103.183163,29.5721487 L103.183163,32.2189888 C103.183163,34.0127435 104.449399,34.9205502 106.054348,34.9205502 C106.927845,34.9205502 107.833847,34.6689517 108.532496,34.0891747 C108.608937,34.0346022 108.608937,33.979881 108.565299,33.9033011 L108.205065,33.4002528 Z M98.4996762,26.9800297 L97.822846,26.9800297 C97.7355706,26.9800297 97.6917844,27.0238959 97.6917844,27.1003271 L97.6917844,34.6798067 C97.6917844,34.7565353 97.7355706,34.8002528 97.822846,34.8002528 L98.4996762,34.8002528 C98.5762649,34.8002528 98.6197542,34.7565353 98.6197542,34.6798067 L98.6197542,27.1003271 C98.6197542,27.0238959 98.5762649,26.9800297 98.4996762,26.9800297 L98.4996762,26.9800297 Z M92.7466196,26.9800297 L91.9169089,26.9800297 C91.8513039,26.9800297 91.7968309,27.0020372 91.7750121,27.0674647 L90.0718045,30.1627807 C89.798846,30.654974 89.3949743,31.464342 89.1984561,31.8799554 L89.1656536,31.8799554 C88.9691353,31.464342 88.5651152,30.654974 88.2923052,30.151777 L86.6000813,27.0674647 C86.5672787,27.0020372 86.5128058,26.9800297 86.4581844,26.9800297 L85.6284737,26.9800297 C85.5411982,26.9800297 85.4974121,27.0238959 85.4974121,27.1003271 L85.4974121,34.6798067 C85.4974121,34.7565353 85.5411982,34.8002528 85.6284737,34.8002528 L86.3053039,34.8002528 C86.3817442,34.8002528 86.4253819,34.7565353 86.4253819,34.6798067 L86.4253819,31.3767584 C86.4253819,30.4580967 86.3925794,29.3425576 86.3707605,28.4127435 L86.3925794,28.4018885 C86.6765215,28.9923717 87.0149366,29.6377249 87.3861542,30.3269442 L88.7507982,32.864342 C88.7726171,32.9189145 88.8272385,32.951777 88.8926951,32.951777 L89.4712662,32.951777 C89.5368712,32.951777 89.5914926,32.9189145 89.6242951,32.864342 L90.9889391,30.3269442 C91.3491731,29.6377249 91.6875882,28.9923717 91.9823655,28.4018885 L92.004036,28.4127435 C91.9715303,29.3425576 91.9387278,30.4580967 91.9387278,31.3767584 L91.9387278,34.6798067 C91.9387278,34.7565353 91.9823655,34.8002528 92.0586574,34.8002528 L92.7466196,34.8002528 C92.8229114,34.8002528 92.8666976,34.7565353 92.8666976,34.6798067 L92.8666976,27.1003271 C92.8666976,27.0238959 92.8229114,26.9800297 92.7466196,26.9800297 L92.7466196,26.9800297 Z M79.4611555,31.8909591 L78.129314,28.0189888 L78.0856762,28.0189888 L76.7536863,31.8909591 L79.4611555,31.8909591 Z M81.3827001,34.657948 C81.4155026,34.7455316 81.3718649,34.8002528 81.284441,34.8002528 L80.5529894,34.8002528 C80.4875328,34.8002528 80.4329114,34.7673903 80.4109442,34.7018141 L79.7450976,32.7548996 L76.4698926,32.7548996 L75.7930624,34.7018141 C75.7712435,34.7673903 75.7276058,34.8002528 75.6511655,34.8002528 L74.919714,34.8002528 C74.8322901,34.8002528 74.7994875,34.7455316 74.8213064,34.657948 L77.5397592,27.0784684 C77.5615781,27.0128922 77.6053643,26.9800297 77.6709693,26.9800297 L78.5333341,26.9800297 C78.5987907,26.9800297 78.6534121,27.0128922 78.6753794,27.0784684 L81.3827001,34.657948 Z M70.7494901,26.9800297 L70.0726599,26.9800297 C69.9962196,26.9800297 69.9525819,27.0238959 69.9525819,27.1003271 L69.9525819,30.4143792 C69.9525819,31.3330409 69.9744008,32.4705874 70.0180385,33.3783941 L69.985236,33.3892491 C69.7124259,32.8753457 69.3630272,32.2954201 69.0682498,31.7923717 L66.175246,27.0674647 C66.1424435,27.0128922 66.0768385,26.9800297 66.0222171,26.9800297 L65.2581114,26.9800297 C65.170836,26.9800297 65.1270498,27.0238959 65.1270498,27.1003271 L65.1270498,34.6798067 C65.1270498,34.7565353 65.170836,34.8002528 65.2581114,34.8002528 L65.9241064,34.8002528 C66.0005467,34.8002528 66.0550196,34.7565353 66.0550196,34.6798067 L66.0550196,31.3659033 C66.0550196,30.5019628 66.0222171,29.3752714 65.989563,28.5113309 L66.0115303,28.5003271 C66.2843404,29.0252342 66.6445743,29.6487286 66.961319,30.1627807 L69.8325039,34.7236729 C69.8653064,34.7783941 69.9197794,34.8002528 69.985236,34.8002528 L70.7494901,34.8002528 C70.8259303,34.8002528 70.8697165,34.7565353 70.8697165,34.6798067 L70.8697165,27.1003271 C70.8697165,27.0238959 70.8259303,26.9800297 70.7494901,26.9800297 L70.7494901,26.9800297 Z M61.1098548,26.9800297 L60.3237819,26.9800297 C60.2691605,26.9800297 60.2037039,27.0020372 60.181885,27.0674647 L58.1730649,30.9721487 L56.1532611,27.0674647 C56.1314423,27.0020372 56.0769693,26.9800297 56.0113643,26.9800297 L55.2254397,26.9800297 C55.1271806,26.9800297 55.0943781,27.0456059 55.1381643,27.1331896 L57.7035882,31.8252342 L57.7035882,34.6798067 C57.7035882,34.7565353 57.7472259,34.8002528 57.8238146,34.8002528 L58.51148,34.8002528 C58.5989039,34.8002528 58.6423932,34.7565353 58.6423932,34.6798067 L58.6423932,31.8470929 L61.1971303,27.1331896 C61.2407681,27.0456059 61.2079655,26.9800297 61.1098548,26.9800297 L61.1098548,26.9800297 Z M50.8358397,29.7908848 C50.8358397,28.5003271 50.1590096,27.8331152 48.947246,27.8331152 L47.1021416,27.8331152 L47.1021416,33.9251599 L48.947246,33.9251599 C50.1590096,33.9251599 50.8358397,33.2908104 50.8358397,32.0331152 L50.8358397,29.7908848 Z M51.7966121,29.7908848 L51.7966121,32.0331152 C51.7966121,33.8050112 50.7267454,34.8002528 48.9580813,34.8002528 L46.2943982,34.8002528 C46.2069743,34.8002528 46.1631882,34.7565353 46.1631882,34.6798067 L46.1631882,27.1003271 C46.1631882,27.0238959 46.2069743,26.9800297 46.2943982,26.9800297 L48.9580813,26.9800297 C50.7267454,26.9800297 51.7966121,27.9972788 51.7966121,29.7908848 L51.7966121,29.7908848 Z M117.137294,12.035197 C117.353405,12.0893234 117.461311,11.9812193 117.461311,11.7648625 L117.461311,10.4398067 C117.461311,10.2506617 117.38027,10.1153457 117.19147,10.0882825 C116.219714,9.95311524 115.301986,9.87192565 114.411123,9.87192565 C112.818642,9.87192565 111.145417,10.2234498 109.795616,10.8725204 C109.63383,10.9264981 109.57995,11.0618141 109.57995,11.2240446 L109.57995,23.852 C109.57995,24.0412937 109.687709,24.1493978 109.876657,24.1493978 L111.469138,24.1493978 C111.6851,24.1493978 111.793155,24.0412937 111.793155,23.852 L111.793155,12.3867212 C112.521935,12.0893234 113.601598,11.846052 114.708127,11.846052 C115.517948,11.846052 116.381649,11.9270929 117.137294,12.035197 L117.137294,12.035197 Z M98.8382397,16.388803 L105.802021,16.388803 L105.802021,15.2530409 C105.802021,12.9546022 104.290433,11.8729665 102.320056,11.8729665 C100.295799,11.8729665 98.8382397,12.9276877 98.8382397,15.2530409 L98.8382397,16.388803 Z M107.637477,22.5000297 C106.287676,23.6356431 104.560275,24.4469442 102.293191,24.4469442 C99.3779228,24.4469442 96.5980209,22.7703643 96.5980209,19.3632268 L96.5980209,15.2530409 C96.5980209,11.5485056 99.3510574,9.87192565 102.320056,9.87192565 C105.262041,9.87192565 107.961198,11.5485056 107.961198,15.2530409 L107.961198,17.9031524 C107.961198,18.1195093 107.853143,18.2274647 107.664343,18.2274647 L98.8382397,18.2274647 L98.8382397,19.3632268 C98.8382397,21.3911822 100.349679,22.4728178 102.34707,22.4728178 C104.209392,22.4728178 105.478152,21.7427063 106.476773,20.9586171 C106.638559,20.850513 106.800642,20.8774275 106.908698,21.0398067 L107.691357,22.067316 C107.826277,22.2295465 107.799264,22.3648625 107.637477,22.5000297 L107.637477,22.5000297 Z M88.6078624,9.87192565 C86.7453919,9.87192565 84.963963,10.2775762 83.4255102,10.9264981 C83.2635756,11.0076877 83.2093995,11.142855 83.2093995,11.3050855 L83.2093995,23.852 C83.2093995,24.0412937 83.3174548,24.1493978 83.5064033,24.1493978 L85.0988838,24.1493978 C85.314846,24.1493978 85.4229014,24.0412937 85.4229014,23.852 L85.4229014,12.3598067 C86.2595882,12.0893234 87.4741718,11.8729665 88.6078624,11.8729665 C91.0370297,11.8729665 92.4675756,12.9546022 92.4675756,15.7667955 L92.4675756,23.852 C92.4675756,24.0412937 92.5754825,24.1493978 92.7644309,24.1493978 L94.3570599,24.1493978 C94.5728737,24.1493978 94.6807806,24.0412937 94.6807806,23.852 L94.6807806,15.7128178 C94.6807806,11.5754201 92.2245995,9.87192565 88.6078624,9.87192565 L88.6078624,9.87192565 Z M81.1346775,10.1694721 L79.542197,10.1694721 C79.3262347,10.1694721 79.2183278,10.3046394 79.2183278,10.4939331 L79.2183278,21.9590632 C78.381641,22.2566097 77.2479504,22.4728178 76.1144083,22.4728178 C73.7659857,22.4728178 72.362602,21.3911822 72.362602,18.5520743 L72.362602,10.3317026 C72.362602,10.1424089 72.2545467,10.0072416 72.0655982,10.0072416 L70.4731177,10.0072416 C70.2571555,10.0072416 70.1492486,10.1424089 70.1492486,10.3317026 L70.1492486,18.606052 C70.1492486,22.7434498 72.5785643,24.4469442 76.1144083,24.4469442 C77.9497165,24.4469442 79.7041316,24.0683569 81.215719,23.392223 C81.3776536,23.3382454 81.4316813,23.1760149 81.4316813,23.0137844 L81.4316813,10.4939331 C81.4316813,10.3046394 81.3236259,10.1694721 81.1346775,10.1694721 L81.1346775,10.1694721 Z M66.532363,11.846052 C65.4258347,11.846052 64.3461718,12.0893234 63.6175404,12.3867212 L63.6175404,23.852 C63.6175404,24.0412937 63.509485,24.1493978 63.2935228,24.1493978 L61.7010423,24.1493978 C61.5120938,24.1493978 61.4040385,24.0412937 61.4040385,23.852 L61.4040385,11.2240446 C61.4040385,11.0618141 61.4582146,10.9264981 61.6201492,10.8725204 C62.9696536,10.2234498 64.6431756,9.87192565 66.2355077,9.87192565 C67.1262221,9.87192565 68.0439504,9.95311524 69.0157064,10.0882825 C69.2046548,10.1153457 69.2855479,10.2506617 69.2855479,10.4398067 L69.2855479,11.7648625 C69.2855479,11.9812193 69.1774926,12.0893234 68.9618272,12.035197 C68.205885,11.9270929 67.3421844,11.846052 66.532363,11.846052 L66.532363,11.846052 Z" id="Fill-1" fill="#202E39"></path>
                        <path d="M39.9205132,19.9967286 C39.9205132,31.0405948 30.9839799,39.9934572 19.9602566,39.9934572 C8.93653333,39.9934572 0,31.0405948 0,19.9967286 C0,8.95286245 8.93653333,0 19.9602566,0 C30.9839799,0 39.9205132,8.95286245 39.9205132,19.9967286" id="Fill-3" fill="#C6E3EA"></path>
                        <path d="M28.9885776,22.5146766 C28.9885776,22.5146766 29.7452619,23.2441933 30.2686179,23.2563866 C30.7921223,23.2684312 31.2835663,23.0354201 31.8795034,21.5873903 C32.4754405,20.1393606 33.0459965,18.957948 32.7797172,17.624119 C32.513438,16.2904387 31.8795034,14.8931152 31.8795034,14.8931152 L24.7404292,10.1542305 C24.7404292,10.1542305 14.4071914,11.5048625 14.2930506,11.6682825 C14.1790581,11.8318513 9.66685686,16.448803 9.30380277,16.7054572 C8.94074868,16.9622602 9.23493233,20.0250112 9.36762667,20.5203271 C9.50032101,21.0157918 10.1575587,23.8357175 10.3804971,25.3600297 C10.6034355,26.884342 13.0759436,26.6938587 13.5323587,26.6557918 C13.9887738,26.6175762 13.0999889,26.3305874 15.3701902,26.6837472 C17.6405399,27.0367584 16.4287764,28.3325204 20.2678581,26.8462751 C24.1069399,25.3600297 24.6325223,24.8647138 24.6325223,24.8647138 C24.6325223,24.8647138 26.0088921,23.1497695 26.5414506,22.8449368 C27.0740091,22.5401041 28.9885776,22.5146766 28.9885776,22.5146766" id="Fill-5" fill="#DDD9CB"></path>
                        <path d="M18.9971836,16.5206245 C18.9971836,16.5206245 20.3644994,15.0455316 21.3165145,15.0201041 C22.2685296,14.9946766 23.6254553,15.3027807 23.9739635,16.5206245 C24.3224717,17.7384684 24.4239962,19.5423346 23.4856365,19.9487286 C22.5474252,20.3552714 20.9734981,20.7050112 19.574122,20.0757175 C18.1747459,19.4465725 18.2871057,17.9671673 18.4138629,17.4590632 C18.5407686,16.9509591 18.9971836,16.5206245 18.9971836,16.5206245" id="Fill-7" fill="#FFFFFF"></path>
                        <path d="M11.1613009,16.213145 C11.1613009,16.213145 13.1453336,15.9602082 13.7255374,17.3828104 C14.3057411,18.8055613 14.0522267,20.4953755 13.494287,21.0095762 C12.9364958,21.5239257 12.1756556,21.8541859 11.1613009,21.676342 C10.1469462,21.4984981 9.10008579,20.3969368 9.12902918,19.2836283 C9.15797258,18.1703197 10.1191902,16.5703197 11.1613009,16.213145" id="Fill-9" fill="#FFFFFF"></path>
                        <path d="M10.0455107,27.8751822 C10.0455107,27.8751822 10.3340541,26.7571152 11.0393824,26.4650706 C11.7445623,26.173026 12.2771208,25.6903494 12.9871987,25.7664833 C13.6971283,25.8427658 15.1680465,26.47771 15.5990805,26.4650706 C16.0302629,26.4524312 17.1459937,26.1061115 17.4248893,25.7584535 C17.7039333,25.4109442 18.5391358,24.4200149 18.958444,24.4200149 C19.3776038,24.4200149 21.0005119,24.6232862 21.456927,24.9535465 C21.9134906,25.2838067 22.2685296,25.4109442 22.7249447,25.1822454 C23.1813597,24.9535465 24.3226201,23.8760743 24.728273,23.2842528 C25.1340742,22.6925799 26.9091208,18.7801636 27.314922,18.3736208 C27.7205748,17.9672268 28.692034,18.2467807 28.7641698,18.6277472 C28.8364541,19.0087138 29.3182503,20.8632862 28.9885925,22.5147361 C28.6589346,24.1660372 28.5067962,27.9260372 28.380039,28.7644015 C28.2531333,29.6027658 28.2531333,30.7713903 27.5938176,31.1016506 C26.9345019,31.4319108 26.4527057,31.3556283 25.9201472,32.1178587 C25.3875887,32.8799405 22.8010881,36.256 22.8010881,36.256 C22.8010881,36.256 22.0890805,36.6399405 21.6969346,36.5129517 C21.3047887,36.3859628 21.1526503,36.4308699 20.645473,36.256 C20.1382956,36.0811301 19.5297421,35.522171 19.2254654,35.3951822 C18.9210403,35.2680446 18.6421447,35.4458885 18.2111107,35.6491599 C17.7799283,35.8524312 16.9430931,36.1572639 16.6895786,35.9794201 C16.4359157,35.8015762 15.8781245,35.0394944 15.2948038,35.1664833 C14.711483,35.2934721 14.0521673,34.9886394 13.3928516,34.2264089 C12.7335358,33.4643271 11.6273044,32.3972639 11.0393824,31.6351822 C10.4513119,30.8729517 10.0708918,28.4595688 10.0455107,27.8751822" id="Fill-11" fill="#4F432F"></path>
                        <path d="M7.73784629,14.8931152 C7.73784629,14.8931152 8.96415572,10.3053086 10.0831519,8.69430483 C11.2022966,7.08330112 13.7000375,4.6724461 14.7878639,4.0325948 C15.8755419,3.39289219 21.4953104,1.8856803 23.9739042,3.35913755 C26.4526463,4.8325948 29.6129683,6.06620074 31.2709054,13.0131152 C31.6597859,14.7295465 31.8794589,14.8931152 31.8794589,14.8931152 C31.8794589,14.8931152 30.0787343,14.9029294 29.9647419,15.6855316 C29.8507494,16.4682825 30.0028878,17.3909591 29.4450966,17.6154944 C28.887157,17.8401784 27.8227821,17.3699926 27.8224853,17.2239703 C27.82204,17.077948 27.2134865,15.9130409 27.2134865,15.9130409 C27.2134865,15.9130409 26.3512702,15.0453829 25.9454689,14.6898439 C25.5398161,14.3341561 23.8282966,11.2855316 23.9739042,10.5234498 L24.1196601,9.76121933 C24.1196601,9.76121933 22.5199067,11.5222602 21.3164551,12.3692491 C20.1130035,13.2163866 19.9175243,13.0639703 19.3304928,13.0639703 C18.7436098,13.0639703 18.0335318,13.826052 17.6024979,13.8769071 C17.1713155,13.9277621 16.375001,14.5004015 15.7842589,14.6459777 C15.1933683,14.7915539 14.6861909,15.2984684 14.6861909,15.2984684 C14.6861909,15.2984684 13.976113,16.6175762 13.5196979,16.5175019 C13.0631343,16.4174275 11.5923645,16.1583941 11.2373255,16.1100669 C10.8822865,16.0617398 10.3804526,17.2239703 10.3804526,17.2239703 L8.34639975,18.9870929 C8.34639975,18.9870929 8.44792428,17.9289517 8.19426138,17.2239703 C7.94074692,16.5189888 7.73784629,14.8931152 7.73784629,14.8931152" id="Fill-13" fill="#4F432F"></path>
                        <path d="M20.9220234,18.6066022 C21.2077467,18.5364164 21.8247605,18.2720297 21.9114423,17.785487 C21.9768989,16.931658 21.2732033,16.9124758 20.9727857,17.0909145 C20.5693592,17.3573829 20.3869416,17.661026 20.2909089,18.0016952 C20.1801819,18.3942602 20.4822322,18.7145576 20.9220234,18.6066022" id="Fill-15" fill="#202E39"></path>
                        <path d="M12.3912023,18.4434944 C12.1629205,17.7855019 11.7927419,18.0057249 11.5208224,18.0765056 C11.3260853,18.1272119 11.0934991,18.3731599 11.0498614,18.5703346 C11.0053331,18.7713755 11.107006,19.1187361 11.2624098,19.2188104 C11.4250865,19.3237918 11.7909608,19.2959851 11.9545281,19.1736059 C12.2104174,18.9823792 12.4481985,18.955316 12.3912023,18.4434944" id="Fill-17" fill="#202E39"></path>
                        <path d="M21.4570903,26.4922082 C21.2617595,26.41429 21.0406023,26.5099033 20.9629746,26.7054424 C20.9540689,26.7278959 20.1871431,28.5942156 18.2136488,29.0721338 C17.3511356,29.1107955 16.5122224,29.1783048 15.7274853,29.0031375 C14.6950224,28.772803 13.8981142,28.3678959 12.8258727,27.8751078 C12.2581369,28.2055167 12.8258727,29.4186022 14.3502249,29.7424684 C15.3604236,29.9571896 16.4804589,30.2241041 17.5172262,29.939197 C18.9863633,29.8676729 19.992406,29.1687881 20.6000689,28.5527286 C21.3414652,27.8012045 21.6567255,27.0200892 21.6699356,26.9872268 C21.7475633,26.7916877 21.6522727,26.5699777 21.4570903,26.4922082" id="Fill-19" fill="#202E39"></path>
                        <path d="M28.9481904,13.7878364 C28.4709955,13.0831524 27.6635489,11.3966097 27.2841678,11.6861264 C26.9049351,11.9756431 27.6200596,12.9348996 27.7120848,13.4929665 C27.7719011,13.8556431 27.8296395,14.4238216 27.6332697,14.5818885 C27.2022357,14.928803 26.7210332,14.6543048 26.4865175,14.1896208 C25.7316143,12.6943048 24.4162483,11.3933383 24.8132923,9.48017844 C24.8373376,9.36389591 25.0768999,9.04999257 24.6038609,8.99973234 C24.1308219,8.94947212 22.4135137,11.3561636 20.7281175,11.8516283 C20.6409904,10.9972045 21.9156873,9.50724164 21.1863137,9.49266914 C20.4569401,9.47809665 18.1813955,12.8795836 16.023554,13.9264238 C16.7343741,12.7313309 17.3708319,11.6868699 17.9706282,10.6217398 C18.0484043,10.4837472 18.3442206,9.98352416 17.8965628,9.8989145 C17.4686458,9.8180223 17.1088571,10.1786171 16.7625753,10.3313309 C16.9049175,9.7780223 17.6066835,9.14055019 16.918276,8.71720446 C16.0973225,8.21252045 15.8626584,9.24389591 15.4249452,9.67571747 C14.3703665,10.7163123 12.8258282,12.4224833 12.2819892,12.8183197 C11.7380018,13.2141561 11.820676,12.7845651 11.9628697,12.6134126 C12.3277049,11.7099182 13.2850634,10.0217398 13.1139263,9.76270632 C12.9429376,9.50382156 10.9388672,10.0233755 9.80695774,10.1589888 C10.0714558,9.21936059 10.6224194,8.43274349 11.2530886,7.71274349 C12.0281779,6.82783643 12.8595213,5.9925948 13.6675615,5.13683271 C14.6786508,4.6317026 15.6512974,4.01430483 16.7106257,3.64984387 C18.6084219,2.99690706 20.7097125,2.81460223 22.5401225,3.36805948 C25.2578332,4.18962082 27.798915,5.61028996 29.0528319,8.46040149 C29.7805728,10.1143792 30.4394433,11.7989888 31.1134533,13.4761636 C31.2247741,13.753487 31.2546081,14.0635242 31.3194709,14.3466468 C29.9876294,14.8815167 29.6253175,14.7876877 28.9481904,13.7878364 L28.9481904,13.7878364 Z M27.8223665,15.4954944 C28.8523062,15.6055316 28.8695238,16.194974 29.1467867,16.8681338 C28.1826005,16.6999554 28.1736948,16.1042677 27.8223665,15.4954944 L27.8223665,15.4954944 Z M28.7531565,21.5210706 C28.4873225,24.144119 27.9506081,26.7588401 28.0038936,29.3948253 C28.0503514,31.6859777 27.0365904,30.6242677 26.376681,30.8730409 C25.4383213,31.2794349 24.0417653,34.4474647 22.3487992,36.2559405 C21.7513779,36.0584684 21.3265779,35.2199554 20.5590584,35.8336357 C20.451003,35.9200297 19.9451615,35.6064238 19.6935766,35.3945279 C18.8772244,34.7069442 18.8896923,34.6919257 18.0506307,35.3647881 C17.2737603,35.9878364 16.6263187,35.4324461 16.5120294,35.2232268 C16.3978886,35.0140074 16.3745854,34.7310335 16.2487187,34.4599554 C16.0490835,34.0294721 14.9055967,32.6406245 14.561393,32.341145 C14.2170408,32.0416654 13.7802181,31.909026 13.7802181,31.909026 C13.7802181,31.909026 14.8318282,33.8282825 15.4207892,34.8789888 C15.1693527,34.9711822 14.7107112,34.9911078 14.5872194,34.842855 C13.1461351,33.1124461 11.0727489,32.0315539 11.0393527,29.4248625 C11.0316345,28.8230781 10.7079137,28.2904387 10.8132974,27.8751227 C10.9188294,27.4598067 10.8173049,27.3066468 11.1120823,26.9867955 C12.0488093,25.9698439 13.3695187,25.8730409 14.877247,26.5152714 C16.3962558,27.1624089 17.3076018,26.4556431 17.9543011,25.3982454 C17.9914081,25.3375762 18.0892219,25.1045651 18.2835137,24.9824833 C19.4155716,25.0339331 20.7987691,25.0040446 21.7221376,25.6324461 C22.20052,25.957948 22.6460999,25.7881338 22.9815464,25.4325948 C23.7910709,24.5747509 24.6676848,23.7493234 25.3134936,22.775197 C26.1359313,21.5347509 26.7575464,20.1604758 27.5188319,18.7450112 C28.0249703,18.2348253 28.8708596,20.3595836 28.7531565,21.5210706 L28.7531565,21.5210706 Z M10.3813728,22.6055316 C10.3598508,22.4424089 10.7335917,22.0876134 10.9551942,22.0586171 C11.5492018,21.9809963 12.1598332,22.0321487 12.8258282,22.0321487 C12.7073829,23.1319257 12.7018911,24.0682825 12.4703439,24.9445651 C12.361398,25.3570558 11.8177074,25.6541561 11.4018131,26.0733383 C10.4582584,24.9699926 10.5318785,23.7457546 10.3813728,22.6055316 L10.3813728,22.6055316 Z M9.89467849,20.2742305 C9.47165962,19.5494721 9.49511119,18.7845651 9.94647975,18.0648625 C10.0819942,17.848803 10.2716848,17.6617398 10.4578131,17.4837472 C11.0031364,16.9625576 11.4475288,16.2146022 12.4142382,16.6529665 C13.304359,17.056684 13.7484546,17.8171301 13.6810684,19.1360892 C13.6466332,19.2822602 13.6222911,19.6614424 13.4694106,19.9783197 C13.1566735,20.6267955 12.8480923,21.3603271 11.9790483,21.3884312 C11.0966458,21.4169814 10.349164,21.0529665 9.89467849,20.2742305 L9.89467849,20.2742305 Z M8.81382818,18.2348253 C8.63452755,17.087316 9.00737786,16.647316 9.81022314,16.2131152 C9.98046969,17.2606989 9.33243447,17.5047138 8.81382818,18.2348253 L8.81382818,18.2348253 Z M16.6847992,10.4666468 C16.535481,11.0711078 16.4921401,11.7502156 16.1595137,12.226052 C15.3330684,13.4080595 14.3549301,14.4844907 13.4222106,15.5900669 C13.2993125,15.7356431 13.0812722,15.8907361 12.9092445,15.8886543 C12.2163842,15.879881 11.5241175,15.8110335 10.7662458,15.6074647 C13.2446911,14.4171301 15.0415565,12.5283569 16.6847992,10.4666468 L16.6847992,10.4666468 Z M23.9997603,15.3125948 C23.807398,15.3265725 23.5388923,15.2892491 23.4198533,15.1647881 C21.8407313,13.5133383 20.6628093,15.0189145 19.4321955,15.7088773 C18.9146282,15.9991375 18.4303087,16.4993606 18.1435464,17.0214424 C17.5124319,18.1699926 16.4789301,17.8346766 15.5429452,17.8893978 C14.6223967,17.9433755 14.3326659,17.2682825 14.0285376,16.544119 C14.8493426,15.9496208 15.54532,15.4386914 16.2496093,14.9398067 C16.4572596,14.7927435 16.7196797,14.5340074 16.9043238,14.5734126 C18.4398081,14.9020372 19.5165024,13.512 20.9650081,13.5215167 C21.2520672,13.5233011 21.6075514,13.3408476 21.8150533,13.1289517 C22.2787414,12.6556431 22.6692546,12.1103643 23.2504974,11.3966097 C23.7511439,12.5906617 24.2035514,13.5936357 24.5881275,14.6218885 C24.7608974,15.0841933 24.401554,15.2831524 23.9997603,15.3125948 L23.9997603,15.3125948 Z M19.0755238,17.0773532 C19.7657125,16.079881 20.8811464,15.7502156 21.9223665,15.319881 C22.0688647,15.2592119 22.3485024,15.3354944 22.4777829,15.4493978 C23.2653401,16.1427807 23.9522634,16.9081338 23.9734886,18.3438216 C23.9905577,19.1235985 23.5206357,19.7983941 22.4985628,20.1595836 C21.4148923,20.5423346 19.5277829,19.9053086 18.9036445,18.9476877 C18.4671187,18.277948 18.6707615,17.6620372 19.0755238,17.0773532 L19.0755238,17.0773532 Z M17.8878055,24.9588401 C17.6944043,24.9588401 17.4996672,25.1795093 17.3263036,25.3937844 C16.7054307,26.1612193 15.8816571,26.1679108 15.0568445,26.0620372 C13.4110785,25.8508848 12.5298634,24.0639703 13.6139791,22.8444907 C14.3958961,21.9649368 14.6676672,21.0089517 14.9513125,19.982632 C15.1297225,19.3363866 15.1997804,18.6397323 16.0961351,18.5360892 C16.8652873,18.447316 17.4351011,18.5647881 17.9922986,19.2372045 C19.3051414,20.8212937 21.0537678,21.2285799 22.8763112,20.5569071 C24.542115,19.9430781 25.1598709,18.7340074 24.7214156,17.001368 C24.6393351,16.6770558 24.655959,16.3276134 24.6270156,15.9897695 C25.0642835,15.9696952 25.5371741,15.8315539 25.932437,15.9511078 C27.2826835,16.359881 27.4342282,16.6792862 26.8899439,17.9601784 C26.2018332,19.579658 25.4816621,21.187539 24.7096898,22.7683569 C24.4431137,23.3143792 24.0272194,23.8110335 23.5966307,24.2482082 C22.7525225,25.1051599 22.4206382,25.0740818 21.282198,24.5876877 C20.6346081,24.3111078 19.9052345,24.1686543 19.2045074,24.1099182 C18.6588873,24.0642677 18.5153577,24.6614424 17.8873603,24.9588401 L17.8878055,24.9588401 Z M10.7987514,10.9674647 C10.7469502,11.9704387 10.0698231,12.1815911 9.36761182,12.3693978 C9.51232881,11.6105874 9.90462314,11.1102156 10.7987514,10.9674647 L10.7987514,10.9674647 Z M32.6302357,15.9607732 C32.5481552,15.6956431 32.4530131,15.4400297 32.4056647,15.2998067 C31.4929829,12.6046394 30.8122936,9.81177695 29.3505779,7.33623792 C27.9080093,4.89341264 25.7086081,3.31586617 22.9971313,2.71527138 C21.5204244,2.38813383 19.8905401,2.52701859 18.3626257,2.71913755 C16.5575967,2.94605204 14.8628496,3.59779926 13.6709753,5.12255762 C10.7410131,6.885829 8.99980805,9.51646097 8.06263572,12.7615167 C7.8088244,13.6407732 7.47515899,14.5146766 7.04412503,15.3189888 C6.73079421,15.9038216 6.19511874,16.3301413 6.5440722,17.1293978 C6.64470616,17.359881 5.49557912,18.3569071 5.29713132,18.6336357 C4.93125711,19.1436729 4.25101308,19.2835985 4.15587094,19.6578736 C4.06087723,20.032 5.18299044,19.6578736 5.5694961,19.3848625 C5.95615019,19.112 6.49004453,18.4052342 6.98668352,17.9558662 C7.15010239,17.8079108 7.49148604,17.6841933 7.65638918,17.7591375 C7.82307346,17.834974 7.95829107,18.1719257 7.9557678,18.3925948 C7.94864327,19.0037472 6.53056528,21.0737844 7.29407723,20.6156431 C8.05758918,20.1575019 8.26850491,19.7754944 8.66139296,19.2569814 C9.08352126,21.1835242 9.79760679,22.8609963 9.49926717,24.5740074 C9.22289484,26.1603271 9.36761182,27.6578736 9.54720931,29.1989888 C9.71359673,30.6269442 9.94929987,31.9924461 11.4344672,32.709026 C11.6063464,32.7918513 11.7087615,33.0144535 11.8506584,33.1653829 C12.9295791,34.3139331 13.8507213,35.7018885 15.6895917,35.7012937 C15.7820621,35.7012937 15.89932,35.7635985 15.9631439,35.8346766 C16.7303665,36.688803 17.4885351,36.473487 18.2918257,35.8731896 C18.4601426,35.747539 18.9026055,35.6986171 18.9913653,35.8049368 C19.6070433,36.5420372 20.5691514,36.1930409 21.2520672,36.5789145 C22.10612,37.0614424 22.6392722,36.6736357 23.1264118,36.0852342 C23.9823942,35.0508848 24.7922156,33.9783197 25.6357301,32.9334126 C25.9561854,32.5363866 26.2732269,31.902632 26.6662634,31.8391375 C28.295554,31.5756431 28.5351162,30.4144535 28.6661779,29.1221115 C28.8485955,27.3237472 28.9585804,25.514974 29.2189225,23.7282082 C29.4372596,22.2293234 29.6336294,20.7552714 29.3090181,19.2493978 C29.2514282,18.9821859 29.3283137,18.4553457 29.4568521,18.415197 C30.3851187,18.1259777 30.3699791,17.5664238 30.2355036,16.7433755 C30.1782106,16.3918513 30.6585225,15.7823346 31.0468093,15.5705874 C31.2930508,15.4363123 31.4998106,15.4901413 31.6715414,15.6351227 C31.9868018,16.347539 32.4405452,17.5395093 32.3966106,18.2098439 C32.3514886,18.8965353 32.2143414,20.9862007 31.0099992,22.3653829 C30.8235741,22.5790632 30.4231162,22.5100669 30.4217804,22.5097695 C30.2160596,22.4669442 30.0147917,22.6001784 29.9726382,22.8064238 C29.9303364,23.0125204 30.0628823,23.2140074 30.2687514,23.2563866 C30.3489024,23.2728922 30.4505753,23.284342 30.5641225,23.284342 C30.8844294,23.284342 31.2979489,23.1930409 31.5824848,22.8672416 C31.9223842,22.4780967 32.9564797,21.2938587 33.1556697,18.2599554 C33.1988621,17.6018141 32.9074986,16.6748253 32.6302357,15.9607732 L32.6302357,15.9607732 Z" id="Fill-21" fill="#202E39"></path>
                    </g>
                </g>
            </g>
        </g>
    </g>
</svg>